<svg xmlns="http://www.w3.org/2000/svg" xmlns:xlink="http://www.w3.org/1999/xlink" width="500" zoomAndPan="magnify" viewBox="0 0 375 187.499995" height="250" preserveAspectRatio="xMidYMid meet" version="1.2"><defs/><g id="00fe41132d"><g style="fill:#000000;fill-opacity:1;"><g transform="translate(0.791641, 108.435832)"><path style="stroke:none" d="M 10.984375 0.4375 C 9.191406 0.4375 7.597656 0.0546875 6.203125 -0.703125 C 4.816406 -1.472656 3.726562 -2.550781 2.9375 -3.9375 C 2.15625 -5.332031 1.765625 -6.941406 1.765625 -8.765625 C 1.765625 -10.609375 2.148438 -12.242188 2.921875 -13.671875 C 3.703125 -15.109375 4.78125 -16.226562 6.15625 -17.03125 C 7.53125 -17.832031 9.148438 -18.234375 11.015625 -18.234375 C 12.765625 -18.234375 14.3125 -17.847656 15.65625 -17.078125 C 17 -16.316406 18.046875 -15.269531 18.796875 -13.9375 C 19.546875 -12.613281 19.921875 -11.140625 19.921875 -9.515625 C 19.921875 -9.253906 19.914062 -8.976562 19.90625 -8.6875 C 19.894531 -8.40625 19.878906 -8.109375 19.859375 -7.796875 L 6.3125 -7.796875 C 6.414062 -6.398438 6.898438 -5.304688 7.765625 -4.515625 C 8.640625 -3.734375 9.703125 -3.34375 10.953125 -3.34375 C 11.890625 -3.34375 12.671875 -3.550781 13.296875 -3.96875 C 13.929688 -4.382812 14.40625 -4.925781 14.71875 -5.59375 L 19.390625 -5.59375 C 19.054688 -4.46875 18.5 -3.445312 17.71875 -2.53125 C 16.9375 -1.613281 15.976562 -0.890625 14.84375 -0.359375 C 13.707031 0.171875 12.421875 0.4375 10.984375 0.4375 Z M 11.015625 -14.5 C 9.890625 -14.5 8.894531 -14.179688 8.03125 -13.546875 C 7.175781 -12.921875 6.628906 -11.960938 6.390625 -10.671875 L 15.265625 -10.671875 C 15.191406 -11.835938 14.757812 -12.765625 13.96875 -13.453125 C 13.175781 -14.148438 12.191406 -14.5 11.015625 -14.5 Z M 11.015625 -14.5 "/></g></g><g style="fill:#000000;fill-opacity:1;"><g transform="translate(22.262426, 108.435832)"><path style="stroke:none" d="M 11.0625 0.4375 C 9.238281 0.4375 7.632812 0.0390625 6.25 -0.75 C 4.863281 -1.539062 3.769531 -2.640625 2.96875 -4.046875 C 2.164062 -5.460938 1.765625 -7.082031 1.765625 -8.90625 C 1.765625 -10.726562 2.164062 -12.34375 2.96875 -13.75 C 3.769531 -15.164062 4.863281 -16.265625 6.25 -17.046875 C 7.632812 -17.835938 9.238281 -18.234375 11.0625 -18.234375 C 13.332031 -18.234375 15.242188 -17.640625 16.796875 -16.453125 C 18.359375 -15.273438 19.351562 -13.644531 19.78125 -11.5625 L 14.9375 -11.5625 C 14.695312 -12.425781 14.222656 -13.101562 13.515625 -13.59375 C 12.804688 -14.082031 11.972656 -14.328125 11.015625 -14.328125 C 9.753906 -14.328125 8.679688 -13.847656 7.796875 -12.890625 C 6.910156 -11.929688 6.46875 -10.601562 6.46875 -8.90625 C 6.46875 -7.207031 6.910156 -5.878906 7.796875 -4.921875 C 8.679688 -3.960938 9.753906 -3.484375 11.015625 -3.484375 C 11.972656 -3.484375 12.804688 -3.722656 13.515625 -4.203125 C 14.222656 -4.679688 14.695312 -5.363281 14.9375 -6.25 L 19.78125 -6.25 C 19.351562 -4.238281 18.359375 -2.617188 16.796875 -1.390625 C 15.242188 -0.171875 13.332031 0.4375 11.0625 0.4375 Z M 11.0625 0.4375 "/></g></g><g style="fill:#000000;fill-opacity:1;"><g transform="translate(43.805026, 108.435832)"><path style="stroke:none" d="M 10.875 0.4375 C 9.15625 0.4375 7.609375 0.0390625 6.234375 -0.75 C 4.859375 -1.539062 3.769531 -2.632812 2.96875 -4.03125 C 2.164062 -5.4375 1.765625 -7.0625 1.765625 -8.90625 C 1.765625 -10.75 2.171875 -12.367188 2.984375 -13.765625 C 3.796875 -15.171875 4.890625 -16.265625 6.265625 -17.046875 C 7.640625 -17.835938 9.191406 -18.234375 10.921875 -18.234375 C 12.617188 -18.234375 14.15625 -17.835938 15.53125 -17.046875 C 16.90625 -16.265625 17.992188 -15.171875 18.796875 -13.765625 C 19.597656 -12.367188 20 -10.75 20 -8.90625 C 20 -7.0625 19.597656 -5.4375 18.796875 -4.03125 C 17.992188 -2.632812 16.894531 -1.539062 15.5 -0.75 C 14.113281 0.0390625 12.570312 0.4375 10.875 0.4375 Z M 10.875 -3.5625 C 12.070312 -3.5625 13.113281 -4.007812 14 -4.90625 C 14.882812 -5.800781 15.328125 -7.132812 15.328125 -8.90625 C 15.328125 -10.675781 14.882812 -12.007812 14 -12.90625 C 13.113281 -13.800781 12.085938 -14.25 10.921875 -14.25 C 9.691406 -14.25 8.640625 -13.800781 7.765625 -12.90625 C 6.898438 -12.007812 6.46875 -10.675781 6.46875 -8.90625 C 6.46875 -7.132812 6.898438 -5.800781 7.765625 -4.90625 C 8.640625 -4.007812 9.675781 -3.5625 10.875 -3.5625 Z M 10.875 -3.5625 "/></g></g><g style="fill:#000000;fill-opacity:1;"><g transform="translate(65.563046, 108.435832)"><path style="stroke:none" d="M 1.9375 -8.46875 L 1.9375 -12.3125 L 16.984375 -12.3125 L 16.984375 -8.46875 Z M 1.9375 -8.46875 "/></g></g><g style="fill:#000000;fill-opacity:1;"><g transform="translate(84.484626, 108.435832)"><path style="stroke:none" d="M 4.890625 -20.578125 C 4.046875 -20.578125 3.351562 -20.828125 2.8125 -21.328125 C 2.28125 -21.828125 2.015625 -22.460938 2.015625 -23.234375 C 2.015625 -23.992188 2.28125 -24.617188 2.8125 -25.109375 C 3.351562 -25.609375 4.046875 -25.859375 4.890625 -25.859375 C 5.722656 -25.859375 6.40625 -25.609375 6.9375 -25.109375 C 7.476562 -24.617188 7.75 -23.992188 7.75 -23.234375 C 7.75 -22.460938 7.476562 -21.828125 6.9375 -21.328125 C 6.40625 -20.828125 5.722656 -20.578125 4.890625 -20.578125 Z M -1.046875 7.90625 L -1.046875 3.984375 L 0.359375 3.984375 C 1.148438 3.984375 1.710938 3.828125 2.046875 3.515625 C 2.378906 3.203125 2.546875 2.675781 2.546875 1.9375 L 2.546875 -17.8125 L 7.140625 -17.8125 L 7.140625 1.9375 C 7.140625 4.09375 6.59375 5.625 5.5 6.53125 C 4.414062 7.445312 2.941406 7.90625 1.078125 7.90625 Z M -1.046875 7.90625 "/></g></g><g style="fill:#000000;fill-opacity:1;"><g transform="translate(94.106987, 108.435832)"><path style="stroke:none" d="M 9.015625 0.4375 C 6.785156 0.4375 5.066406 -0.253906 3.859375 -1.640625 C 2.648438 -3.035156 2.046875 -5.070312 2.046875 -7.75 L 2.046875 -17.8125 L 6.609375 -17.8125 L 6.609375 -8.1875 C 6.609375 -6.65625 6.914062 -5.484375 7.53125 -4.671875 C 8.15625 -3.859375 9.140625 -3.453125 10.484375 -3.453125 C 11.753906 -3.453125 12.800781 -3.90625 13.625 -4.8125 C 14.445312 -5.71875 14.859375 -6.988281 14.859375 -8.625 L 14.859375 -17.8125 L 19.46875 -17.8125 L 19.46875 0 L 15.40625 0 L 15.046875 -3.015625 C 14.492188 -1.960938 13.695312 -1.125 12.65625 -0.5 C 11.613281 0.125 10.398438 0.4375 9.015625 0.4375 Z M 9.015625 0.4375 "/></g></g><g style="fill:#000000;fill-opacity:1;"><g transform="translate(115.936823, 108.435832)"><path style="stroke:none" d="M 9.6875 0.4375 C 8.113281 0.4375 6.726562 0.179688 5.53125 -0.328125 C 4.332031 -0.847656 3.375 -1.5625 2.65625 -2.46875 C 1.9375 -3.382812 1.503906 -4.441406 1.359375 -5.640625 L 6 -5.640625 C 6.144531 -4.941406 6.53125 -4.347656 7.15625 -3.859375 C 7.789062 -3.367188 8.613281 -3.125 9.625 -3.125 C 10.625 -3.125 11.359375 -3.328125 11.828125 -3.734375 C 12.296875 -4.140625 12.53125 -4.609375 12.53125 -5.140625 C 12.53125 -5.898438 12.191406 -6.414062 11.515625 -6.6875 C 10.847656 -6.96875 9.914062 -7.238281 8.71875 -7.5 C 7.957031 -7.664062 7.179688 -7.867188 6.390625 -8.109375 C 5.597656 -8.347656 4.875 -8.65625 4.21875 -9.03125 C 3.5625 -9.40625 3.03125 -9.882812 2.625 -10.46875 C 2.21875 -11.050781 2.015625 -11.773438 2.015625 -12.640625 C 2.015625 -14.222656 2.640625 -15.550781 3.890625 -16.625 C 5.148438 -17.695312 6.914062 -18.234375 9.1875 -18.234375 C 11.300781 -18.234375 12.984375 -17.742188 14.234375 -16.765625 C 15.492188 -15.785156 16.242188 -14.429688 16.484375 -12.703125 L 12.140625 -12.703125 C 11.867188 -14.023438 10.875 -14.6875 9.15625 -14.6875 C 8.289062 -14.6875 7.625 -14.519531 7.15625 -14.1875 C 6.695312 -13.851562 6.46875 -13.429688 6.46875 -12.921875 C 6.46875 -12.398438 6.8125 -11.984375 7.5 -11.671875 C 8.195312 -11.359375 9.117188 -11.070312 10.265625 -10.8125 C 11.515625 -10.519531 12.660156 -10.195312 13.703125 -9.84375 C 14.742188 -9.5 15.570312 -8.984375 16.1875 -8.296875 C 16.8125 -7.617188 17.125 -6.648438 17.125 -5.390625 C 17.144531 -4.285156 16.859375 -3.289062 16.265625 -2.40625 C 15.671875 -1.519531 14.8125 -0.820312 13.6875 -0.3125 C 12.5625 0.1875 11.226562 0.4375 9.6875 0.4375 Z M 9.6875 0.4375 "/></g></g><g style="fill:#000000;fill-opacity:1;"><g transform="translate(134.212127, 108.435832)"><path style="stroke:none" d="M 10.265625 0 C 8.398438 0 6.90625 -0.453125 5.78125 -1.359375 C 4.65625 -2.273438 4.09375 -3.894531 4.09375 -6.21875 L 4.09375 -13.96875 L 1.046875 -13.96875 L 1.046875 -17.8125 L 4.09375 -17.8125 L 4.625 -22.578125 L 8.6875 -22.578125 L 8.6875 -17.8125 L 13.5 -17.8125 L 13.5 -13.96875 L 8.6875 -13.96875 L 8.6875 -6.171875 C 8.6875 -5.316406 8.867188 -4.722656 9.234375 -4.390625 C 9.609375 -4.066406 10.253906 -3.90625 11.171875 -3.90625 L 13.390625 -3.90625 L 13.390625 0 Z M 10.265625 0 "/></g></g><g style="fill:#000000;fill-opacity:1;"><g transform="translate(149.327846, 108.435832)"><path style="stroke:none" d=""/></g></g><g style="fill:#000000;fill-opacity:1;"><g transform="translate(157.873078, 108.435832)"><path style="stroke:none" d="M 4.5625 7.90625 L 8.6875 -1.1875 L 7.609375 -1.1875 L 0.6875 -17.8125 L 5.671875 -17.8125 L 10.671875 -5.28125 L 15.875 -17.8125 L 20.75 -17.8125 L 9.4375 7.90625 Z M 4.5625 7.90625 "/></g></g><g style="fill:#000000;fill-opacity:1;"><g transform="translate(177.764076, 108.435832)"><path style="stroke:none" d="M 10.875 0.4375 C 9.15625 0.4375 7.609375 0.0390625 6.234375 -0.75 C 4.859375 -1.539062 3.769531 -2.632812 2.96875 -4.03125 C 2.164062 -5.4375 1.765625 -7.0625 1.765625 -8.90625 C 1.765625 -10.75 2.171875 -12.367188 2.984375 -13.765625 C 3.796875 -15.171875 4.890625 -16.265625 6.265625 -17.046875 C 7.640625 -17.835938 9.191406 -18.234375 10.921875 -18.234375 C 12.617188 -18.234375 14.15625 -17.835938 15.53125 -17.046875 C 16.90625 -16.265625 17.992188 -15.171875 18.796875 -13.765625 C 19.597656 -12.367188 20 -10.75 20 -8.90625 C 20 -7.0625 19.597656 -5.4375 18.796875 -4.03125 C 17.992188 -2.632812 16.894531 -1.539062 15.5 -0.75 C 14.113281 0.0390625 12.570312 0.4375 10.875 0.4375 Z M 10.875 -3.5625 C 12.070312 -3.5625 13.113281 -4.007812 14 -4.90625 C 14.882812 -5.800781 15.328125 -7.132812 15.328125 -8.90625 C 15.328125 -10.675781 14.882812 -12.007812 14 -12.90625 C 13.113281 -13.800781 12.085938 -14.25 10.921875 -14.25 C 9.691406 -14.25 8.640625 -13.800781 7.765625 -12.90625 C 6.898438 -12.007812 6.46875 -10.675781 6.46875 -8.90625 C 6.46875 -7.132812 6.898438 -5.800781 7.765625 -4.90625 C 8.640625 -4.007812 9.675781 -3.5625 10.875 -3.5625 Z M 10.875 -3.5625 "/></g></g><g style="fill:#000000;fill-opacity:1;"><g transform="translate(199.522085, 108.435832)"><path style="stroke:none" d="M 9.015625 0.4375 C 6.785156 0.4375 5.066406 -0.253906 3.859375 -1.640625 C 2.648438 -3.035156 2.046875 -5.070312 2.046875 -7.75 L 2.046875 -17.8125 L 6.609375 -17.8125 L 6.609375 -8.1875 C 6.609375 -6.65625 6.914062 -5.484375 7.53125 -4.671875 C 8.15625 -3.859375 9.140625 -3.453125 10.484375 -3.453125 C 11.753906 -3.453125 12.800781 -3.90625 13.625 -4.8125 C 14.445312 -5.71875 14.859375 -6.988281 14.859375 -8.625 L 14.859375 -17.8125 L 19.46875 -17.8125 L 19.46875 0 L 15.40625 0 L 15.046875 -3.015625 C 14.492188 -1.960938 13.695312 -1.125 12.65625 -0.5 C 11.613281 0.125 10.398438 0.4375 9.015625 0.4375 Z M 9.015625 0.4375 "/></g></g><g style="fill:#000000;fill-opacity:1;"><g transform="translate(221.351932, 108.435832)"><path style="stroke:none" d="M 10.265625 0 C 8.398438 0 6.90625 -0.453125 5.78125 -1.359375 C 4.65625 -2.273438 4.09375 -3.894531 4.09375 -6.21875 L 4.09375 -13.96875 L 1.046875 -13.96875 L 1.046875 -17.8125 L 4.09375 -17.8125 L 4.625 -22.578125 L 8.6875 -22.578125 L 8.6875 -17.8125 L 13.5 -17.8125 L 13.5 -13.96875 L 8.6875 -13.96875 L 8.6875 -6.171875 C 8.6875 -5.316406 8.867188 -4.722656 9.234375 -4.390625 C 9.609375 -4.066406 10.253906 -3.90625 11.171875 -3.90625 L 13.390625 -3.90625 L 13.390625 0 Z M 10.265625 0 "/></g></g><g style="fill:#000000;fill-opacity:1;"><g transform="translate(236.467651, 108.435832)"><path style="stroke:none" d="M 2.328125 0 L 2.328125 -25.859375 L 6.9375 -25.859375 L 6.9375 -15.078125 C 7.53125 -16.054688 8.332031 -16.828125 9.34375 -17.390625 C 10.363281 -17.953125 11.535156 -18.234375 12.859375 -18.234375 C 15.054688 -18.234375 16.757812 -17.539062 17.96875 -16.15625 C 19.175781 -14.769531 19.78125 -12.734375 19.78125 -10.046875 L 19.78125 0 L 15.21875 0 L 15.21875 -9.625 C 15.21875 -11.15625 14.910156 -12.328125 14.296875 -13.140625 C 13.691406 -13.953125 12.734375 -14.359375 11.421875 -14.359375 C 10.128906 -14.359375 9.054688 -13.90625 8.203125 -13 C 7.359375 -12.09375 6.9375 -10.820312 6.9375 -9.1875 L 6.9375 0 Z M 2.328125 0 "/></g></g><g style="fill:#000000;fill-opacity:1;"><g transform="translate(258.297476, 108.435832)"><path style="stroke:none" d=""/></g></g><g style="fill:#000000;fill-opacity:1;"><g transform="translate(266.842719, 108.435832)"><path style="stroke:none" d="M 11.0625 0.4375 C 9.238281 0.4375 7.632812 0.0390625 6.25 -0.75 C 4.863281 -1.539062 3.769531 -2.640625 2.96875 -4.046875 C 2.164062 -5.460938 1.765625 -7.082031 1.765625 -8.90625 C 1.765625 -10.726562 2.164062 -12.34375 2.96875 -13.75 C 3.769531 -15.164062 4.863281 -16.265625 6.25 -17.046875 C 7.632812 -17.835938 9.238281 -18.234375 11.0625 -18.234375 C 13.332031 -18.234375 15.242188 -17.640625 16.796875 -16.453125 C 18.359375 -15.273438 19.351562 -13.644531 19.78125 -11.5625 L 14.9375 -11.5625 C 14.695312 -12.425781 14.222656 -13.101562 13.515625 -13.59375 C 12.804688 -14.082031 11.972656 -14.328125 11.015625 -14.328125 C 9.753906 -14.328125 8.679688 -13.847656 7.796875 -12.890625 C 6.910156 -11.929688 6.46875 -10.601562 6.46875 -8.90625 C 6.46875 -7.207031 6.910156 -5.878906 7.796875 -4.921875 C 8.679688 -3.960938 9.753906 -3.484375 11.015625 -3.484375 C 11.972656 -3.484375 12.804688 -3.722656 13.515625 -4.203125 C 14.222656 -4.679688 14.695312 -5.363281 14.9375 -6.25 L 19.78125 -6.25 C 19.351562 -4.238281 18.359375 -2.617188 16.796875 -1.390625 C 15.242188 -0.171875 13.332031 0.4375 11.0625 0.4375 Z M 11.0625 0.4375 "/></g></g><g style="fill:#000000;fill-opacity:1;"><g transform="translate(288.38533, 108.435832)"><path style="stroke:none" d="M 10.875 0.4375 C 9.15625 0.4375 7.609375 0.0390625 6.234375 -0.75 C 4.859375 -1.539062 3.769531 -2.632812 2.96875 -4.03125 C 2.164062 -5.4375 1.765625 -7.0625 1.765625 -8.90625 C 1.765625 -10.75 2.171875 -12.367188 2.984375 -13.765625 C 3.796875 -15.171875 4.890625 -16.265625 6.265625 -17.046875 C 7.640625 -17.835938 9.191406 -18.234375 10.921875 -18.234375 C 12.617188 -18.234375 14.15625 -17.835938 15.53125 -17.046875 C 16.90625 -16.265625 17.992188 -15.171875 18.796875 -13.765625 C 19.597656 -12.367188 20 -10.75 20 -8.90625 C 20 -7.0625 19.597656 -5.4375 18.796875 -4.03125 C 17.992188 -2.632812 16.894531 -1.539062 15.5 -0.75 C 14.113281 0.0390625 12.570312 0.4375 10.875 0.4375 Z M 10.875 -3.5625 C 12.070312 -3.5625 13.113281 -4.007812 14 -4.90625 C 14.882812 -5.800781 15.328125 -7.132812 15.328125 -8.90625 C 15.328125 -10.675781 14.882812 -12.007812 14 -12.90625 C 13.113281 -13.800781 12.085938 -14.25 10.921875 -14.25 C 9.691406 -14.25 8.640625 -13.800781 7.765625 -12.90625 C 6.898438 -12.007812 6.46875 -10.675781 6.46875 -8.90625 C 6.46875 -7.132812 6.898438 -5.800781 7.765625 -4.90625 C 8.640625 -4.007812 9.675781 -3.5625 10.875 -3.5625 Z M 10.875 -3.5625 "/></g></g><g style="fill:#000000;fill-opacity:1;"><g transform="translate(310.143339, 108.435832)"><path style="stroke:none" d="M 1.9375 -8.46875 L 1.9375 -12.3125 L 16.984375 -12.3125 L 16.984375 -8.46875 Z M 1.9375 -8.46875 "/></g></g><g style="fill:#000000;fill-opacity:1;"><g transform="translate(329.064919, 108.435832)"><path style="stroke:none" d="M 10.875 0.4375 C 9.15625 0.4375 7.609375 0.0390625 6.234375 -0.75 C 4.859375 -1.539062 3.769531 -2.632812 2.96875 -4.03125 C 2.164062 -5.4375 1.765625 -7.0625 1.765625 -8.90625 C 1.765625 -10.75 2.171875 -12.367188 2.984375 -13.765625 C 3.796875 -15.171875 4.890625 -16.265625 6.265625 -17.046875 C 7.640625 -17.835938 9.191406 -18.234375 10.921875 -18.234375 C 12.617188 -18.234375 14.15625 -17.835938 15.53125 -17.046875 C 16.90625 -16.265625 17.992188 -15.171875 18.796875 -13.765625 C 19.597656 -12.367188 20 -10.75 20 -8.90625 C 20 -7.0625 19.597656 -5.4375 18.796875 -4.03125 C 17.992188 -2.632812 16.894531 -1.539062 15.5 -0.75 C 14.113281 0.0390625 12.570312 0.4375 10.875 0.4375 Z M 10.875 -3.5625 C 12.070312 -3.5625 13.113281 -4.007812 14 -4.90625 C 14.882812 -5.800781 15.328125 -7.132812 15.328125 -8.90625 C 15.328125 -10.675781 14.882812 -12.007812 14 -12.90625 C 13.113281 -13.800781 12.085938 -14.25 10.921875 -14.25 C 9.691406 -14.25 8.640625 -13.800781 7.765625 -12.90625 C 6.898438 -12.007812 6.46875 -10.675781 6.46875 -8.90625 C 6.46875 -7.132812 6.898438 -5.800781 7.765625 -4.90625 C 8.640625 -4.007812 9.675781 -3.5625 10.875 -3.5625 Z M 10.875 -3.5625 "/></g></g><g style="fill:#000000;fill-opacity:1;"><g transform="translate(350.822951, 108.435832)"><path style="stroke:none" d="M 2.328125 7.90625 L 2.328125 -17.8125 L 6.421875 -17.8125 L 6.9375 -15.265625 C 7.507812 -16.046875 8.265625 -16.734375 9.203125 -17.328125 C 10.148438 -17.929688 11.378906 -18.234375 12.890625 -18.234375 C 14.566406 -18.234375 16.0625 -17.828125 17.375 -17.015625 C 18.695312 -16.203125 19.738281 -15.085938 20.5 -13.671875 C 21.269531 -12.265625 21.65625 -10.664062 21.65625 -8.875 C 21.65625 -7.070312 21.269531 -5.46875 20.5 -4.0625 C 19.738281 -2.664062 18.695312 -1.566406 17.375 -0.765625 C 16.0625 0.0351562 14.566406 0.4375 12.890625 0.4375 C 11.546875 0.4375 10.367188 0.1875 9.359375 -0.3125 C 8.359375 -0.820312 7.550781 -1.53125 6.9375 -2.4375 L 6.9375 7.90625 Z M 11.921875 -3.59375 C 13.378906 -3.59375 14.585938 -4.082031 15.546875 -5.0625 C 16.503906 -6.039062 16.984375 -7.3125 16.984375 -8.875 C 16.984375 -10.425781 16.503906 -11.703125 15.546875 -12.703125 C 14.585938 -13.710938 13.378906 -14.21875 11.921875 -14.21875 C 10.429688 -14.21875 9.210938 -13.71875 8.265625 -12.71875 C 7.328125 -11.726562 6.859375 -10.457031 6.859375 -8.90625 C 6.859375 -7.351562 7.328125 -6.078125 8.265625 -5.078125 C 9.210938 -4.085938 10.429688 -3.59375 11.921875 -3.59375 Z M 11.921875 -3.59375 "/></g></g></g></svg>